<svg xmlns="http://www.w3.org/2000/svg" viewBox="0 0 64 64" id="PortfolioWebsite"><g transform="translate(-288 -288)" fill="#167ffc" class="color000000 svgShape"><path fill="#595bd4" fill-rule="evenodd" d="m 298,297 h 49 v 6 h -49 z" class="color3e4f59 svgShape"></path><path fill="#acc2b0" fill-rule="evenodd" d="m 298,303 h 49 v 40 h -49 z" class="coloracbec2 svgShape"></path><path fill="#e8eee9" fill-rule="evenodd" d="m 298,303 v 40 h 29.76953 a 28.484051,41.392605 35.599482 0 0 18.625,-40 z" class="colore8edee svgShape"></path><path fill-rule="evenodd" d="m 300,296 c -1.64501,0 -3,1.355 -3,3 v 40 c 0,0.55229 0.44772,1 1,1 0.55229,0 1,-0.44771 1,-1 v -40 c 0,-0.56413 0.43587,-1 1,-1 h 45 c 0.56413,0 1,0.43587 1,1 v 3 h -42 c -0.55228,0 -1,0.44772 -1,1 0,0.55229 0.44772,1 1,1 h 42 v 37 c 0,0.56413 -0.43587,1 -1,1 h -49 c -0.55228,0 -1,0.44772 -1,1 0,0.55229 0.44772,1 1,1 h 49 c 1.64501,0 3,-1.35499 3,-3 0,-14 0,-28 0,-42 0,-1.645 -1.35499,-3 -3,-3 z" color="#000" fill="#167ffc" class="color000000 svgShape"></path><path style="-inkscape-stroke:none" fill="#eda961" fill-rule="evenodd" d="m 343,299 c -0.55228,0 -1,0.44772 -1,1 0,0.55229 0.44772,1 1,1 0.55229,0 1,-0.44771 1,-1 0,-0.55228 -0.44771,-1 -1,-1 z" color="#000" class="colored7161 svgShape"></path><path style="-inkscape-stroke:none" fill="#ec8416" fill-rule="evenodd" d="m 339,299 c -0.55228,0 -1,0.44772 -1,1 0,0.55229 0.44772,1 1,1 0.55229,0 1,-0.44771 1,-1 0,-0.55228 -0.44771,-1 -1,-1 z" color="#000" class="colorecba16 svgShape"></path><path style="-inkscape-stroke:none" fill="#53d86a" fill-rule="evenodd" d="m 335,299 c -0.55228,0 -1,0.44772 -1,1 0,0.55229 0.44772,1 1,1 0.55229,0 1,-0.44771 1,-1 0,-0.55228 -0.44771,-1 -1,-1 z" color="#000" class="color42b05c svgShape"></path><path style="-inkscape-stroke:none" fill-rule="evenodd" d="M293 342a1 1 0 00-1 1 1 1 0 001 1 1 1 0 001-1 1 1 0 00-1-1zM301 302c-.55228 0-1 .44772-1 1 0 .55229.44772 1 1 1 .55229 0 1-.44771 1-1 0-.55228-.44771-1-1-1z" color="#000" fill="#167ffc" class="color000000 svgShape"></path><path fill-rule="evenodd" d="M319 307.06836a1 1 0 00-1 1v28.86328a1 1 0 001 1 1 1 0 001-1v-28.86328a1 1 0 00-1-1zM310 326a1 1 0 00-1 1 1 1 0 001 1h5a1 1 0 001-1 1 1 0 00-1-1zM303 326a1 1 0 00-1 1 1 1 0 001 1h3a1 1 0 001-1 1 1 0 00-1-1zM303 332a1 1 0 00-1 1 1 1 0 001 1h12a1 1 0 001-1 1 1 0 00-1-1zM332 309a1 1 0 00-1 1 1 1 0 001 1h9a1 1 0 001-1 1 1 0 00-1-1z" color="#000" fill="#167ffc" class="color000000 svgShape"></path><path style="-inkscape-stroke:none" fill-rule="evenodd" d="m 324,309 c -0.55228,0 -1,0.44771 -1,1 0,0.55228 0.44772,1 1,1 0.55229,0 1,-0.44772 1,-1 0,-0.55229 -0.44771,-1 -1,-1 z" color="#000" fill="#167ffc" class="color000000 svgShape"></path><path fill-rule="evenodd" d="m 332,325 a 1,1 0 0 0 -1,1 1,1 0 0 0 1,1 h 9 a 1,1 0 0 0 1,-1 1,1 0 0 0 -1,-1 z" color="#000" fill="#167ffc" class="color000000 svgShape"></path><path style="-inkscape-stroke:none" fill-rule="evenodd" d="m 324,325 c -0.55228,0 -1,0.44771 -1,1 0,0.55228 0.44772,1 1,1 0.55229,0 1,-0.44772 1,-1 0,-0.55229 -0.44771,-1 -1,-1 z" color="#000" fill="#167ffc" class="color000000 svgShape"></path><path fill-rule="evenodd" d="m 324,317 a 1,1 0 0 0 -1,1 1,1 0 0 0 1,1 h 17 a 1,1 0 0 0 1,-1 1,1 0 0 0 -1,-1 z" color="#000" fill="#167ffc" class="color000000 svgShape"></path><path style="-inkscape-stroke:none" fill-rule="evenodd" d="m 324,334 a 1,1 0 0 0 -1,1 1,1 0 0 0 1,1 h 17 a 1,1 0 0 0 1,-1 1,1 0 0 0 -1,-1 z" color="#000" fill="#167ffc" class="color000000 svgShape"></path><path fill="#fe9526" fill-rule="evenodd" d="M312.00001 312a2.99999 2.99999 0 01-2.99999 3 2.99999 2.99999 0 01-2.99999-3 2.99999 2.99999 0 012.99999-2.99998 2.99999 2.99999 0 012.99999 2.99998zM304.00002 321c0-3.31371 2.23858-6 5-6 2.76142 0 4.99998 2.68629 4.99998 6z" class="colorffa221 svgShape"></path><path fill="#ffa443" fill-rule="evenodd" d="m 307.82621,309.24415 a 2.99999,2.99999 0 0 0 -1.82617,2.75586 2.99999,2.99999 0 0 0 3,3 2.99999,2.99999 0 0 0 0.68555,-0.0801 5.7604036,9.6529589 0 0 0 -1.85938,-5.67578 z" class="colorffc343 svgShape"></path><path fill="#ffa443" fill-rule="evenodd" d="m 309.00004,315.00001 c -2.76142,0 -5,2.68629 -5,6 h 5.07227 a 5.7604036,9.6529589 0 0 0 0.6875,-4.54297 5.7604036,9.6529589 0 0 0 -0.0606,-1.39844 C 309.47078,315.0202 309.23732,315 309.00004,315 Z" class="colorffc343 svgShape"></path><path fill-rule="evenodd" d="m 309.00004,308.00001 c -2.19728,0 -3.99999,1.80272 -4,4 0,1.09667 0.44883,2.09529 1.17188,2.82031 -1.91443,1.19449 -3.17188,3.55834 -3.17188,6.17969 a 1.000105,1.000105 0 0 0 1,1 h 4 a 1.000005,1.000005 0 0 0 1,-1 1.000005,1.000005 0 0 0 -1,-1 h -2.83594 c 0.39188,-2.32414 1.98868,-4 3.83594,-4 1.84726,0 3.44406,1.67586 3.83594,4 h -0.83594 a 1.000005,1.000005 0 0 0 -1,1 1.000005,1.000005 0 0 0 1,1 h 2 a 1.000105,1.000105 0 0 0 1,-1 c 0,-2.62135 -1.25745,-4.9852 -3.17188,-6.17969 0.72305,-0.72502 1.17188,-1.72364 1.17188,-2.82031 -1e-5,-2.19728 -1.80272,-4 -4,-4 z m 0,2 c 1.1164,0 2,0.8836 2,2 0,1.11641 -0.88359,2 -2,2 -1.11641,0 -2,-0.88359 -2,-2 0,-1.1164 0.8836,-2 2,-2 z" color="#000" fill="#167ffc" class="color000000 svgShape"></path></g></svg>